<svg xmlns="http://www.w3.org/2000/svg" viewBox="0 0 1600 400" font-family="'Poppins','Noto Sans SC',-apple-system,Segoe UI,Roboto,Arial,'PingFang SC','Microsoft YaHei',sans-serif">
  <defs>
    <linearGradient id="bg" x1="0" y1="0" x2="1" y2="1"><stop offset="0" stop-color="#0b1226"/><stop offset="0.6" stop-color="#0d1f45"/><stop offset="1" stop-color="#0a2232"/></linearGradient>
    <radialGradient id="g1" cx="0.85" cy="0.2" r="0.7"><stop offset="0" stop-color="#1a56db" stop-opacity="0.45"/><stop offset="1" stop-color="#1a56db" stop-opacity="0"/></radialGradient>
    <radialGradient id="g2" cx="0.1" cy="0.9" r="0.6"><stop offset="0" stop-color="#0e9f6e" stop-opacity="0.35"/><stop offset="1" stop-color="#0e9f6e" stop-opacity="0"/></radialGradient>
    <linearGradient id="acc" x1="0" y1="0" x2="1" y2="0"><stop offset="0" stop-color="#1a56db"/><stop offset="1" stop-color="#0e9f6e"/></linearGradient>
  </defs>
  <rect width="1600" height="400" fill="url(#bg)"/>
  <rect width="1600" height="400" fill="url(#g1)"/>
  <rect width="1600" height="400" fill="url(#g2)"/>
  <g stroke="#ffffff" stroke-opacity="0.05"><path d="M0 100 H1600 M0 200 H1600 M0 300 H1600 M400 0 V400 M800 0 V400 M1200 0 V400"/></g>
  <g transform="translate(90,118)">
    <rect rx="20" width="270" height="40" fill="#1a56db" fill-opacity="0.14" stroke="#1a56db" stroke-opacity="0.5"/>
    <circle cx="26" cy="20" r="7" fill="#0e9f6e"/>
    <text x="44" y="26" fill="#dce6ff" font-size="18" font-weight="600">通宝VPN · 办公专线加速器</text>
  </g>
  <text x="88" y="232" fill="#ffffff" font-size="62" font-weight="800">通宝VPN 博客</text>
  <text x="90" y="290" fill="#bcd0f0" font-size="30" font-weight="600">办公专线 · AI 全速加速 · 全球皆可触达</text>
  <g transform="translate(90,318)">
    <rect rx="20" width="360" height="42" fill="#0e9f6e" fill-opacity="0.14" stroke="#0e9f6e" stroke-opacity="0.55"/>
    <text x="22" y="28" fill="#bff3e2" font-size="19" font-weight="700">🚀 稳定跨境办公 · ChatGPT / Zoom / Google</text>
  </g>
  <g transform="translate(1330,200)" fill="none">
    <circle r="150" stroke="url(#acc)" stroke-width="2" stroke-opacity="0.45"/>
    <circle r="98" stroke="#1a56db" stroke-width="2" stroke-opacity="0.4"/>
    <path d="M0 -150 L130 75 L-130 75 Z" stroke="url(#acc)" stroke-width="2" stroke-opacity="0.5"/>
    <circle cx="0" cy="-150" r="12" fill="#1a56db"/><circle cx="130" cy="75" r="12" fill="#0e9f6e"/><circle cx="-130" cy="75" r="12" fill="#9fb3d6"/>
    <circle r="18" fill="#0b1226" stroke="url(#acc)" stroke-width="3"/>
  </g>
</svg>
